<svg xmlns="http://www.w3.org/2000/svg" viewBox="0 0 800 700">
  <defs>
    <marker id="arrowhead" markerWidth="10" markerHeight="7" refX="0" refY="3.5" orient="auto">
      <polygon points="0 0, 10 3.5, 0 7" fill="#333"/>
    </marker>
  </defs>
  
  <!-- Background -->
  <rect x="0" y="0" width="800" height="700" fill="#f0f0f0"/>
  
  <!-- NavigationLink -->
  <rect x="50" y="200" width="220" height="80" rx="15" ry="15" fill="#99ccff" stroke="#333" stroke-width="2"/>
  <text x="160" y="240" font-family="Arial" font-size="18" text-anchor="middle" fill="#333">NavigationLink</text>
  <text x="160" y="265" font-family="Arial" font-size="14" text-anchor="middle" fill="#333">Text("克莉絲蒂")</text>
  
  <!-- Value -->
  <rect x="340" y="100" width="120" height="60" rx="15" ry="15" fill="#ffcc99" stroke="#333" stroke-width="2"/>
  <text x="400" y="135" font-family="Arial" font-size="18" text-anchor="middle" fill="#333">value</text>
  <text x="400" y="155" font-family="Arial" font-size="14" text-anchor="middle" fill="#333">"克莉絲蒂"</text>
  
  <!-- AuthorView -->
  <rect x="530" y="300" width="220" height="80" rx="15" ry="15" fill="#cc99ff" stroke="#333" stroke-width="2"/>
  <text x="640" y="340" font-family="Arial" font-size="18" text-anchor="middle" fill="#333">AuthorView</text>
  <text x="640" y="365" font-family="Arial" font-size="14" text-anchor="middle" fill="#333">author: "克莉絲蒂"</text>
  
  <!-- Arrows -->
  <path d="M270 240 Q340 240 400 160" fill="none" stroke="#333" stroke-width="2" marker-end="url(#arrowhead)"/>
  <path d="M460 130 Q530 130 600 300" fill="none" stroke="#333" stroke-width="2" marker-end="url(#arrowhead)"/>
  
  <!-- Labels -->
  <text x="320" y="220" font-family="Arial" font-size="14" fill="#666">傳遞</text>
  <text x="540" y="200" font-family="Arial" font-size="14" fill="#666">創建並傳入</text>
  
  <!-- Title -->
  <text x="400" y="30" font-family="Arial" font-size="24" text-anchor="middle" fill="#333">NavigationLink、value 和 AuthorView 關係</text>
  
  <!-- Code for NavigationLink -->
  <rect x="20" y="320" width="300" height="80" rx="10" ry="10" fill="#e6e6e6" stroke="#333" stroke-width="1"/>
  <text x="30" y="340" font-family="Courier" font-size="12" fill="#333">
    <tspan x="30" dy="0">NavigationLink(value: author) {</tspan>
    <tspan x="30" dy="16">    Text(author)</tspan>
    <tspan x="30" dy="16">}</tspan>
    <tspan x="30" dy="16">// author 在這裡是 "克莉絲蒂"</tspan>
  </text>
  
  <!-- Code for navigationDestination -->
  <rect x="480" y="420" width="300" height="80" rx="10" ry="10" fill="#e6e6e6" stroke="#333" stroke-width="1"/>
  <text x="490" y="440" font-family="Courier" font-size="12" fill="#333">
    <tspan x="490" dy="0">.navigationDestination(for: String.self) {</tspan>
    <tspan x="490" dy="16">    author in</tspan>
    <tspan x="490" dy="16">    AuthorView(author: author)</tspan>
    <tspan x="490" dy="16">}</tspan>
  </text>
  
  <!-- Explanations -->
  <text x="50" y="550" font-family="Arial" font-size="14" fill="#333">
    <tspan x="50" dy="0">1. NavigationLink：在列表中顯示 "克莉絲蒂"，當用戶點擊時觸發導航。</tspan>
    <tspan x="50" dy="25">2. value：NavigationLink 將 "克莉絲蒂" 作為值傳遞給導航系統。</tspan>
    <tspan x="50" dy="25">3. navigationDestination：定義如何處理特定類型（這裡是 String）的導航目標。</tspan>
    <tspan x="50" dy="25">4. AuthorView：接收 "克莉絲蒂" 作為 author 參數，用於顯示作者詳情。</tspan>
    <tspan x="50" dy="25">5. 當用戶點擊 NavigationLink 時，SwiftUI 使用 navigationDestination 創建 AuthorView。</tspan>
  </text>
</svg>
